{
  "accessors": [
    {
      "bufferView": 2,
      "componentType": 5126,
      "count": 943,
      "max": [
        0.24372625350952148,
        17.536535263061523,
        0.5
      ],
      "min": [
        -5.359683036804199,
        -0.49661684036254883,
        -0.5
      ],
      "type": "VEC3"
    },
    {
      "bufferView": 2,
      "byteOffset": 11316,
      "componentType": 5126,
      "count": 943,
      "max": [
        0.9996210336685181,
        0.9998183846473694,
        1.0
      ],
      "min": [
        -0.9999485015869141,
        -0.999994158744812,
        -1.0
      ],
      "type": "VEC3"
    },
    {
      "bufferView": 3,
      "componentType": 5126,
      "count": 943,
      "max": [
        0.9872668385505676,
        0.957944393157959,
        0.9999599456787109,
        1.0
      ],
      "min": [
        -0.9908705949783325,
        -0.9976927042007446,
        -0.9999591708183289,
        1.0
      ],
      "type": "VEC4"
    },
    {
      "bufferView": 1,
      "componentType": 5126,
      "count": 943,
      "max": [
        0.9823175668716431,
        0.9623594284057617
      ],
      "min": [
        0.04139010235667229,
        0.040630266070365906
      ],
      "type": "VEC2"
    },
    {
      "bufferView": 0,
      "componentType": 5125,
      "count": 4992,
      "type": "SCALAR"
    }
  ],
  "asset": {
    "extras": {
      "author": "cswindley (https://sketchfab.com/cswindley)",
      "license": "CC-BY-4.0 (http://creativecommons.org/licenses/by/4.0/)",
      "source": "https://sketchfab.com/3d-models/mini-golf-putter-a314bc7f887b41f58638364e39a1435b",
      "title": "Mini Golf Putter"
    },
    "generator": "Sketchfab-16.59.0",
    "version": "2.0"
  },
  "bufferViews": [
    {
      "buffer": 0,
      "byteLength": 19968,
      "name": "floatBufferViews",
      "target": 34963
    },
    {
      "buffer": 0,
      "byteLength": 7544,
      "byteOffset": 19968,
      "byteStride": 8,
      "name": "floatBufferViews",
      "target": 34962
    },
    {
      "buffer": 0,
      "byteLength": 22632,
      "byteOffset": 27512,
      "byteStride": 12,
      "name": "floatBufferViews",
      "target": 34962
    },
    {
      "buffer": 0,
      "byteLength": 15088,
      "byteOffset": 50144,
      "byteStride": 16,
      "name": "floatBufferViews",
      "target": 34962
    }
  ],
  "buffers": [
    {
      "byteLength": 65232,
      "uri": "scene.bin"
    }
  ],
  "images": [
    {
      "uri": "textures/standardSurface1_baseColor.png"
    },
    {
      "uri": "textures/standardSurface1_metallicRoughness.png"
    },
    {
      "uri": "textures/standardSurface1_emissive.png"
    },
    {
      "uri": "textures/standardSurface1_normal.png"
    }
  ],
  "materials": [
    {
      "doubleSided": true,
      "emissiveFactor": [
        1.0,
        1.0,
        1.0
      ],
      "emissiveTexture": {
        "index": 2
      },
      "name": "standardSurface1",
      "normalTexture": {
        "index": 3
      },
      "pbrMetallicRoughness": {
        "baseColorTexture": {
          "index": 0
        },
        "metallicRoughnessTexture": {
          "index": 1
        }
      }
    }
  ],
  "meshes": [
    {
      "name": "pCube2_standardSurface1_0",
      "primitives": [
        {
          "attributes": {
            "NORMAL": 1,
            "POSITION": 0,
            "TANGENT": 2,
            "TEXCOORD_0": 3
          },
          "indices": 4,
          "material": 0,
          "mode": 4
        }
      ]
    }
  ],
  "nodes": [
    {
      "children": [
        1
      ],
      "matrix": [
        1.0,
        0.0,
        0.0,
        0.0,
        0.0,
        2.220446049250313e-16,
        -1.0,
        0.0,
        0.0,
        1.0,
        2.220446049250313e-16,
        0.0,
        0.0,
        0.0,
        0.0,
        1.0
      ],
      "name": "Sketchfab_model"
    },
    {
      "children": [
        2
      ],
      "matrix": [
        0.009999999776482582,
        0.0,
        0.0,
        0.0,
        0.0,
        0.0,
        0.009999999776482582,
        0.0,
        0.0,
        -0.009999999776482582,
        0.0,
        0.0,
        0.0,
        0.0,
        0.0,
        1.0
      ],
      "name": "Putter.fbx"
    },
    {
      "children": [
        3
      ],
      "name": "RootNode"
    },
    {
      "children": [
        4
      ],
      "name": "pCube2"
    },
    {
      "mesh": 0,
      "name": "pCube2_standardSurface1_0"
    }
  ],
  "samplers": [
    {
      "magFilter": 9729,
      "minFilter": 9987,
      "wrapS": 10497,
      "wrapT": 10497
    }
  ],
  "scene": 0,
  "scenes": [
    {
      "name": "Sketchfab_Scene",
      "nodes": [
        0
      ]
    }
  ],
  "textures": [
    {
      "sampler": 0,
      "source": 0
    },
    {
      "sampler": 0,
      "source": 1
    },
    {
      "sampler": 0,
      "source": 2
    },
    {
      "sampler": 0,
      "source": 3
    }
  ]
}
