{
  "accessors": [
    {
      "bufferView": 2,
      "componentType": 5126,
      "count": 12291,
      "max": [
        0.4637030065059662,
        0.41397199034690857,
        0.947180986404419
      ],
      "min": [
        -0.4643400013446808,
        -0.41632699966430664,
        -0.9487630128860474
      ],
      "type": "VEC3"
    },
    {
      "bufferView": 2,
      "byteOffset": 147492,
      "componentType": 5126,
      "count": 12291,
      "max": [
        0.9999920129776001,
        0.9998981952667236,
        0.9999182224273682
      ],
      "min": [
        -0.9999648332595825,
        -0.999969482421875,
        -0.9999997615814209
      ],
      "type": "VEC3"
    },
    {
      "bufferView": 3,
      "componentType": 5126,
      "count": 12291,
      "max": [
        1.0,
        0.9999905824661255,
        0.9999454617500305,
        1.0
      ],
      "min": [
        -0.9999172687530518,
        -0.9999803304672241,
        -0.9999881982803345,
        1.0
      ],
      "type": "VEC4"
    },
    {
      "bufferView": 1,
      "componentType": 5126,
      "count": 12291,
      "max": [
        1.0,
        1.0
      ],
      "min": [
        0.0,
        0.0
      ],
      "type": "VEC2"
    },
    {
      "bufferView": 0,
      "componentType": 5125,
      "count": 58818,
      "type": "SCALAR"
    }
  ],
  "asset": {
    "extras": {
      "author": "Abdur Razzak Sawon (https://sketchfab.com/md.abdur.razzak.sawon)",
      "license": "CC-BY-4.0 (http://creativecommons.org/licenses/by/4.0/)",
      "source": "https://sketchfab.com/3d-models/deadpool-like-chibi-character-2a0ae8167eff4a9eb464f0ed3ee78eeb",
      "title": "Deadpool-like chibi character"
    },
    "generator": "Sketchfab-16.53.0",
    "version": "2.0"
  },
  "bufferViews": [
    {
      "buffer": 0,
      "byteLength": 235272,
      "name": "floatBufferViews",
      "target": 34963
    },
    {
      "buffer": 0,
      "byteLength": 98328,
      "byteOffset": 235272,
      "byteStride": 8,
      "name": "floatBufferViews",
      "target": 34962
    },
    {
      "buffer": 0,
      "byteLength": 294984,
      "byteOffset": 333600,
      "byteStride": 12,
      "name": "floatBufferViews",
      "target": 34962
    },
    {
      "buffer": 0,
      "byteLength": 196656,
      "byteOffset": 628584,
      "byteStride": 16,
      "name": "floatBufferViews",
      "target": 34962
    }
  ],
  "buffers": [
    {
      "byteLength": 825240,
      "uri": "scene.bin"
    }
  ],
  "images": [
    {
      "uri": "textures/place_holder_baseColor.png"
    },
    {
      "uri": "textures/place_holder_metallicRoughness.png"
    },
    {
      "uri": "textures/place_holder_normal.png"
    }
  ],
  "materials": [
    {
      "doubleSided": true,
      "name": "place_holder",
      "normalTexture": {
        "index": 2
      },
      "pbrMetallicRoughness": {
        "baseColorTexture": {
          "index": 0
        },
        "metallicRoughnessTexture": {
          "index": 1
        }
      }
    }
  ],
  "meshes": [
    {
      "name": "Object_0",
      "primitives": [
        {
          "attributes": {
            "NORMAL": 1,
            "POSITION": 0,
            "TANGENT": 2,
            "TEXCOORD_0": 3
          },
          "indices": 4,
          "material": 0,
          "mode": 4
        }
      ]
    }
  ],
  "nodes": [
    {
      "children": [
        1
      ],
      "matrix": [
        1.0,
        0.0,
        0.0,
        0.0,
        0.0,
        2.220446049250313e-16,
        -1.0,
        0.0,
        0.0,
        1.0,
        2.220446049250313e-16,
        0.0,
        0.0,
        0.0,
        0.0,
        1.0
      ],
      "name": "Sketchfab_model"
    },
    {
      "children": [
        2
      ],
      "name": "base.obj.cleaner.materialmerger.gles"
    },
    {
      "mesh": 0,
      "name": "Object_2"
    }
  ],
  "samplers": [
    {
      "magFilter": 9729,
      "minFilter": 9987,
      "wrapS": 10497,
      "wrapT": 10497
    }
  ],
  "scene": 0,
  "scenes": [
    {
      "name": "Sketchfab_Scene",
      "nodes": [
        0
      ]
    }
  ],
  "textures": [
    {
      "sampler": 0,
      "source": 0
    },
    {
      "sampler": 0,
      "source": 1
    },
    {
      "sampler": 0,
      "source": 2
    }
  ]
}
