{
  "accessors": [
    {
      "bufferView": 2,
      "componentType": 5126,
      "count": 2029,
      "max": [
        1.6992847919464111,
        3.972679615020752,
        0.6392521858215332
      ],
      "min": [
        -1.6992847919464111,
        0.03201296925544739,
        -0.2686985731124878
      ],
      "type": "VEC3"
    },
    {
      "bufferView": 2,
      "byteOffset": 24348,
      "componentType": 5126,
      "count": 2029,
      "max": [
        0.9998677968978882,
        0.9998904466629028,
        1.0
      ],
      "min": [
        -0.9998677968978882,
        -1.0,
        -1.0
      ],
      "type": "VEC3"
    },
    {
      "bufferView": 1,
      "componentType": 5126,
      "count": 2029,
      "max": [
        0.9558483958244324,
        0.9856678247451782
      ],
      "min": [
        0.0,
        0.0
      ],
      "type": "VEC2"
    },
    {
      "bufferView": 0,
      "componentType": 5125,
      "count": 11232,
      "type": "SCALAR"
    },
    {
      "bufferView": 2,
      "byteOffset": 48696,
      "componentType": 5126,
      "count": 429,
      "max": [
        0.713852047920227,
        3.972679615020752,
        0.09968598186969757
      ],
      "min": [
        -0.713852047920227,
        1.7165882587432861,
        -0.7933289408683777
      ],
      "type": "VEC3"
    },
    {
      "bufferView": 2,
      "byteOffset": 53844,
      "componentType": 5126,
      "count": 429,
      "max": [
        0.9998677968978882,
        0.9986708164215088,
        0.17656582593917847
      ],
      "min": [
        -0.9998677968978882,
        -0.9996581077575684,
        -1.0
      ],
      "type": "VEC3"
    },
    {
      "bufferView": 1,
      "byteOffset": 16232,
      "componentType": 5126,
      "count": 429,
      "max": [
        0.95423823595047,
        0.9425281882286072
      ],
      "min": [
        0.0,
        0.0
      ],
      "type": "VEC2"
    },
    {
      "bufferView": 0,
      "byteOffset": 44928,
      "componentType": 5125,
      "count": 2136,
      "type": "SCALAR"
    }
  ],
  "asset": {
    "extras": {
      "author": "JessThe3dDemon (https://sketchfab.com/JessThe3dDemon)",
      "license": "CC-BY-4.0 (http://creativecommons.org/licenses/by/4.0/)",
      "source": "https://sketchfab.com/3d-models/spiderman-chibi-character-low-poly-758dc9682f954cf18251077dec25f17d",
      "title": "Spiderman - Chibi Character - Low poly"
    },
    "generator": "Sketchfab-15.31.0",
    "version": "2.0"
  },
  "bufferViews": [
    {
      "buffer": 0,
      "byteLength": 53472,
      "name": "floatBufferViews",
      "target": 34963
    },
    {
      "buffer": 0,
      "byteLength": 19664,
      "byteOffset": 53472,
      "byteStride": 8,
      "name": "floatBufferViews",
      "target": 34962
    },
    {
      "buffer": 0,
      "byteLength": 58992,
      "byteOffset": 73136,
      "byteStride": 12,
      "name": "floatBufferViews",
      "target": 34962
    }
  ],
  "buffers": [
    {
      "byteLength": 132128,
      "uri": "scene.bin"
    }
  ],
  "images": [
    {
      "uri": "textures/Red_suit_and_eyes_baseColor.jpeg"
    },
    {
      "uri": "textures/back_suit_baseColor.jpeg"
    }
  ],
  "materials": [
    {
      "doubleSided": true,
      "name": "Red_suit_and_eyes",
      "pbrMetallicRoughness": {
        "baseColorTexture": {
          "index": 0
        },
        "metallicFactor": 0.0,
        "roughnessFactor": 0.4
      }
    },
    {
      "doubleSided": true,
      "name": "back_suit",
      "pbrMetallicRoughness": {
        "baseColorTexture": {
          "index": 1
        },
        "metallicFactor": 0.0,
        "roughnessFactor": 0.4
      }
    }
  ],
  "meshes": [
    {
      "name": "character_Red_suit_and_eyes_0",
      "primitives": [
        {
          "attributes": {
            "NORMAL": 1,
            "POSITION": 0,
            "TEXCOORD_0": 2
          },
          "indices": 3,
          "material": 0,
          "mode": 4
        }
      ]
    },
    {
      "name": "character_back_suit_0",
      "primitives": [
        {
          "attributes": {
            "NORMAL": 5,
            "POSITION": 4,
            "TEXCOORD_0": 6
          },
          "indices": 7,
          "material": 1,
          "mode": 4
        }
      ]
    }
  ],
  "nodes": [
    {
      "children": [
        1
      ],
      "matrix": [
        1.0,
        0.0,
        0.0,
        0.0,
        0.0,
        2.220446049250313e-16,
        -1.0,
        0.0,
        0.0,
        1.0,
        2.220446049250313e-16,
        0.0,
        0.0,
        0.0,
        0.0,
        1.0
      ],
      "name": "Sketchfab_model"
    },
    {
      "children": [
        2
      ],
      "matrix": [
        0.009999999776482582,
        0.0,
        0.0,
        0.0,
        0.0,
        0.0,
        0.009999999776482582,
        0.0,
        0.0,
        -0.009999999776482582,
        0.0,
        0.0,
        0.0,
        0.0,
        0.0,
        1.0
      ],
      "name": "679842b06d0745598e8b5bda249c692c.fbx"
    },
    {
      "children": [
        3
      ],
      "name": "RootNode"
    },
    {
      "children": [
        4,
        5
      ],
      "name": "character"
    },
    {
      "mesh": 0,
      "name": "character_Red_suit_and_eyes_0"
    },
    {
      "mesh": 1,
      "name": "character_back_suit_0"
    }
  ],
  "samplers": [
    {
      "magFilter": 9729,
      "minFilter": 9987,
      "wrapS": 10497,
      "wrapT": 10497
    }
  ],
  "scene": 0,
  "scenes": [
    {
      "name": "Sketchfab_Scene",
      "nodes": [
        0
      ]
    }
  ],
  "textures": [
    {
      "sampler": 0,
      "source": 0
    },
    {
      "sampler": 0,
      "source": 1
    }
  ]
}
